<svg width="32" height="32" viewBox="0 0 32 32" fill="none" xmlns="http://www.w3.org/2000/svg">
<path d="M6.66667 14.6667L8.66667 8.66675H23.3333L25.3333 14.6667M23.3333 21.3334C22.8029 21.3334 22.2942 21.1227 21.9191 20.7476C21.544 20.3726 21.3333 19.8638 21.3333 19.3334C21.3333 18.803 21.544 18.2943 21.9191 17.9192C22.2942 17.5441 22.8029 17.3334 23.3333 17.3334C23.8638 17.3334 24.3725 17.5441 24.7475 17.9192C25.1226 18.2943 25.3333 18.803 25.3333 19.3334C25.3333 19.8638 25.1226 20.3726 24.7475 20.7476C24.3725 21.1227 23.8638 21.3334 23.3333 21.3334ZM8.66667 21.3334C8.13623 21.3334 7.62753 21.1227 7.25245 20.7476C6.87738 20.3726 6.66667 19.8638 6.66667 19.3334C6.66667 18.803 6.87738 18.2943 7.25245 17.9192C7.62753 17.5441 8.13623 17.3334 8.66667 17.3334C9.1971 17.3334 9.70581 17.5441 10.0809 17.9192C10.456 18.2943 10.6667 18.803 10.6667 19.3334C10.6667 19.8638 10.456 20.3726 10.0809 20.7476C9.70581 21.1227 9.1971 21.3334 8.66667 21.3334ZM25.2267 8.00008C24.96 7.22675 24.2133 6.66675 23.3333 6.66675H8.66667C7.78667 6.66675 7.04 7.22675 6.77333 8.00008L4 16.0001V26.6667C4 27.0204 4.14048 27.3595 4.39052 27.6096C4.64057 27.8596 4.97971 28.0001 5.33333 28.0001H6.66667C7.02029 28.0001 7.35943 27.8596 7.60948 27.6096C7.85952 27.3595 8 27.0204 8 26.6667V25.3334H24V26.6667C24 27.0204 24.1405 27.3595 24.3905 27.6096C24.6406 27.8596 24.9797 28.0001 25.3333 28.0001H26.6667C27.0203 28.0001 27.3594 27.8596 27.6095 27.6096C27.8595 27.3595 28 27.0204 28 26.6667V16.0001L25.2267 8.00008Z" fill="#C20254"/>
</svg>
