<svg width="33" height="33" viewBox="0 0 33 33" fill="none" xmlns="http://www.w3.org/2000/svg">
<circle cx="16.5" cy="16.5" r="16.5" fill="#222222"/>
<path fill-rule="evenodd" clip-rule="evenodd" d="M10.8482 12.4929C11.4107 12.4929 11.8644 12.3288 12.2093 12.0007C12.5541 11.6726 12.7232 11.2641 12.7165 10.7753C12.7098 10.2797 12.5391 9.86956 12.2042 9.54478C11.8694 9.22001 11.4241 9.05762 10.8683 9.05762C10.3125 9.05762 9.86217 9.22001 9.5173 9.54478C9.17243 9.86956 9 10.2797 9 10.7753C9 11.2641 9.16741 11.6726 9.50223 12.0007C9.83705 12.3288 10.279 12.4929 10.8281 12.4929H10.8482ZM17.6382 23.8034V18.2487C17.6382 17.9072 17.675 17.636 17.7487 17.4351C17.8893 17.0936 18.1019 16.8073 18.3865 16.5763C18.6711 16.3453 19.0243 16.2298 19.4462 16.2298C20.0221 16.2298 20.4457 16.429 20.7169 16.8274C20.9881 17.2259 21.1237 17.7766 21.1237 18.4798V23.8034H24.4284V18.0981C24.4284 16.6316 24.0801 15.5183 23.3837 14.7582C22.6873 13.9982 21.7665 13.6182 20.6214 13.6182C20.1996 13.6182 19.8162 13.6701 19.4713 13.7739C19.1265 13.8777 18.8352 14.0233 18.5974 14.2108C18.3597 14.3983 18.1705 14.5724 18.0299 14.7331C17.8962 14.886 17.7655 15.063 17.6378 15.2643L17.6382 13.8492H14.3335L14.3435 14.3313C14.3487 14.5771 14.3518 15.2145 14.353 16.2435L14.3532 17.9958C14.3517 19.5519 14.3451 21.4878 14.3335 23.8034H17.6382ZM12.5057 13.8486V23.8029H9.19092V13.8486H12.5057Z" fill="white"/>
</svg>
