<svg width="59" height="46" viewBox="0 0 59 46" fill="none" xmlns="http://www.w3.org/2000/svg">
<g clip-path="url(#clip0_33_415)">
<path d="M10.7261 45.6353V42.5998C10.7261 41.4359 10.0176 40.6772 8.80329 40.6772C8.19624 40.6772 7.53848 40.8796 7.08307 41.5374C6.72907 40.9808 6.22319 40.6772 5.46426 40.6772C4.95815 40.6772 4.4525 40.8289 4.04757 41.3855V40.7784H2.98511V45.6353H4.04757V42.9538C4.04757 42.0939 4.50297 41.689 5.21144 41.689C5.91944 41.689 6.2739 42.1444 6.2739 42.9538V45.6353H7.33636V42.9538C7.33636 42.0939 7.84201 41.689 8.49976 41.689C9.20822 41.689 9.56223 42.1444 9.56223 42.9538V45.6353H10.7261ZM26.4604 40.7784H24.7404V39.3113H23.678V40.7784H22.7167V41.7395H23.6777V43.9658C23.6777 45.079 24.1332 45.7365 25.3475 45.7365C25.8029 45.7365 26.3085 45.5848 26.663 45.3825L26.3592 44.4717C26.0557 44.674 25.7017 44.7247 25.4487 44.7247C24.9428 44.7247 24.7404 44.4212 24.7404 43.9151V41.7395H26.4604V40.7784ZM35.4662 40.677C34.8592 40.677 34.4545 40.9808 34.2014 41.3855V40.7784H33.1389V45.6353H34.2014V42.9033C34.2014 42.0939 34.5554 41.6385 35.2132 41.6385C35.4155 41.6385 35.6686 41.6892 35.8709 41.7397L36.1745 40.7279C35.9721 40.6772 35.6686 40.6772 35.4662 40.6772M21.8566 41.1834C21.3505 40.8291 20.6422 40.6775 19.8833 40.6775C18.6692 40.6775 17.8598 41.2845 17.8598 42.2458C17.8598 43.0555 18.4668 43.5106 19.5293 43.6625L20.0352 43.7132C20.5918 43.8142 20.8953 43.966 20.8953 44.2191C20.8953 44.5731 20.4906 44.8261 19.7821 44.8261C19.0737 44.8261 18.5173 44.5731 18.1631 44.3203L17.6572 45.1297C18.2138 45.5344 18.9727 45.7367 19.7314 45.7367C21.1481 45.7367 21.9578 45.0792 21.9578 44.1684C21.9578 43.3083 21.3 42.8529 20.288 42.7012L19.7821 42.6505C19.3267 42.5998 18.9727 42.4989 18.9727 42.1953C18.9727 41.8411 19.3267 41.6388 19.8833 41.6388C20.4906 41.6388 21.0976 41.8916 21.4012 42.0435L21.8566 41.1834ZM50.0879 40.6775C49.4806 40.6775 49.0759 40.981 48.8228 41.3857V40.7787H47.7603V45.6355H48.8228V42.9036C48.8228 42.0942 49.177 41.6388 49.8346 41.6388C50.0371 41.6388 50.2902 41.6895 50.4926 41.7399L50.7961 40.7282C50.5937 40.6775 50.2902 40.6775 50.0879 40.6775ZM36.5287 43.2071C36.5287 44.6743 37.5404 45.7367 39.109 45.7367C39.8172 45.7367 40.3231 45.5851 40.829 45.1804L40.3231 44.3203C39.9184 44.6238 39.5137 44.7754 39.0583 44.7754C38.1982 44.7754 37.5911 44.1684 37.5911 43.2071C37.5911 42.2965 38.1982 41.6892 39.0583 41.6388C39.5137 41.6388 39.9184 41.7904 40.3231 42.0942L40.829 41.2341C40.3231 40.8291 39.8172 40.6775 39.109 40.6775C37.5404 40.6775 36.5287 41.7399 36.5287 43.2071ZM46.3439 43.2071V40.7787H45.2814V41.3857C44.9272 40.9305 44.4213 40.6775 43.7636 40.6775C42.3976 40.6775 41.3351 41.7399 41.3351 43.2071C41.3351 44.6743 42.3976 45.7367 43.7636 45.7367C44.4718 45.7367 44.9779 45.4839 45.2814 45.0285V45.6355H46.3439V43.2071ZM42.448 43.2071C42.448 42.347 43.0046 41.6388 43.9152 41.6388C44.7753 41.6388 45.3826 42.2965 45.3826 43.2071C45.3826 44.0672 44.7753 44.7754 43.9152 44.7754C43.0046 44.7247 42.448 44.0672 42.448 43.2071ZM29.7492 40.6775C28.3325 40.6775 27.3205 41.6892 27.3205 43.2071C27.3205 44.725 28.3323 45.7367 29.7997 45.7367C30.5079 45.7367 31.2164 45.5344 31.773 45.0792L31.2669 44.3203C30.8621 44.6238 30.3563 44.8261 29.8504 44.8261C29.1926 44.8261 28.5349 44.5226 28.383 43.6623H31.9753V43.2578C32.026 41.6892 31.1154 40.6775 29.7492 40.6775ZM29.749 41.5881C30.4065 41.5881 30.8621 41.993 30.9631 42.7519H28.4335C28.5346 42.0942 28.9901 41.5881 29.749 41.5881ZM56.1082 43.2071V38.8561H55.0457V41.3857C54.6915 40.9305 54.1856 40.6775 53.5278 40.6775C52.1618 40.6775 51.0994 41.7399 51.0994 43.2071C51.0994 44.6743 52.1618 45.7367 53.5278 45.7367C54.2363 45.7367 54.7422 45.4839 55.0457 45.0285V45.6355H56.1082V43.2071ZM52.2125 43.2071C52.2125 42.347 52.7689 41.6388 53.6797 41.6388C54.5398 41.6388 55.1469 42.2965 55.1469 43.2071C55.1469 44.0672 54.5398 44.7754 53.6797 44.7754C52.7689 44.7247 52.2125 44.0672 52.2125 43.2071ZM16.6957 43.2071V40.7787H15.6332V41.3857C15.279 40.9305 14.7731 40.6775 14.1154 40.6775C12.7494 40.6775 11.6869 41.7399 11.6869 43.2071C11.6869 44.6743 12.7494 45.7367 14.1154 45.7367C14.8238 45.7367 15.3297 45.4839 15.6332 45.0285V45.6355H16.6957V43.2071ZM12.7494 43.2071C12.7494 42.347 13.306 41.6388 14.2165 41.6388C15.0767 41.6388 15.6839 42.2965 15.6839 43.2071C15.6839 44.0672 15.0767 44.7754 14.2165 44.7754C13.306 44.7247 12.7494 44.0672 12.7494 43.2071Z" fill="white"/>
<path d="M21.5022 3.89563H37.4391V32.5316H21.5022V3.89563Z" fill="#FF5F00"/>
<path d="M22.5143 18.2137C22.5143 12.3955 25.2462 7.23488 29.4454 3.89561C26.3594 1.46716 22.4638 0 18.2139 0C8.14546 0 0 8.14546 0 18.2137C0 28.282 8.14546 36.4274 18.2137 36.4274C22.4636 36.4274 26.3592 34.9603 29.4454 32.5316C25.2462 29.243 22.5143 24.0319 22.5143 18.2137Z" fill="#EB001B"/>
<path d="M58.9415 18.2137C58.9415 28.2817 50.796 36.4274 40.7278 36.4274C36.4779 36.4274 32.5823 34.9603 29.4961 32.5316C33.7459 29.1926 36.4274 24.0319 36.4274 18.2137C36.4274 12.3955 33.6952 7.23488 29.4961 3.89561C32.5821 1.46716 36.4779 0 40.7278 0C50.796 0 58.9415 8.19616 58.9415 18.2137Z" fill="#F79E1B"/>
</g>
<defs>
<clipPath id="clip0_33_415">
<rect width="59" height="45.8633" fill="white"/>
</clipPath>
</defs>
</svg>
