<svg width="32" height="32" viewBox="0 0 32 32" fill="none" xmlns="http://www.w3.org/2000/svg">
<path d="M14.6667 26C14.6667 26 13 26 13 24.3333C13 22.6667 14.6667 17.6667 21.3333 17.6667C28 17.6667 29.6667 22.6667 29.6667 24.3333C29.6667 26 28 26 28 26H14.6667ZM21.3333 16C22.6594 16 23.9312 15.4732 24.8689 14.5355C25.8065 13.5979 26.3333 12.3261 26.3333 11C26.3333 9.67392 25.8065 8.40215 24.8689 7.46447C23.9312 6.52678 22.6594 6 21.3333 6C20.0072 6 18.7355 6.52678 17.7978 7.46447C16.8601 8.40215 16.3333 9.67392 16.3333 11C16.3333 12.3261 16.8601 13.5979 17.7978 14.5355C18.7355 15.4732 20.0072 16 21.3333 16ZM11.6933 26C11.4464 25.4797 11.3232 24.9092 11.3333 24.3333C11.3333 22.075 12.4667 19.75 14.56 18.1333C13.5153 17.8107 12.4266 17.6533 11.3333 17.6667C4.66667 17.6667 3 22.6667 3 24.3333C3 26 4.66667 26 4.66667 26H11.6933ZM10.5 16C11.6051 16 12.6649 15.561 13.4463 14.7796C14.2277 13.9982 14.6667 12.9384 14.6667 11.8333C14.6667 10.7283 14.2277 9.66846 13.4463 8.88706C12.6649 8.10565 11.6051 7.66667 10.5 7.66667C9.39493 7.66667 8.33512 8.10565 7.55372 8.88706C6.77232 9.66846 6.33333 10.7283 6.33333 11.8333C6.33333 12.9384 6.77232 13.9982 7.55372 14.7796C8.33512 15.561 9.39493 16 10.5 16Z" fill="#C20254"/>
</svg>
