<svg width="40" height="39" viewBox="0 0 40 39" fill="none" xmlns="http://www.w3.org/2000/svg">
<path d="M19.8296 1.90832C20.013 1.53673 20.5429 1.53673 20.7263 1.90832L26.1186 12.8325C26.1914 12.98 26.332 13.0822 26.4947 13.106L38.554 14.8686C38.964 14.9286 39.1274 15.4325 38.8306 15.7216L30.1053 24.2199C29.9874 24.3348 29.9336 24.5004 29.9614 24.6626L32.0204 36.668C32.0905 37.0765 31.6617 37.3879 31.2949 37.195L20.5107 31.5237C20.365 31.4471 20.1909 31.4471 20.0452 31.5237L9.26099 37.195C8.89418 37.3879 8.4654 37.0765 8.53546 36.668L10.5945 24.6626C10.6223 24.5004 10.5685 24.3348 10.4506 24.2199L1.72534 15.7216C1.42854 15.4325 1.59193 14.9286 2.00189 14.8686L14.0612 13.106C14.2239 13.0822 14.3645 12.98 14.4373 12.8325L19.8296 1.90832Z" fill="#FF8000" stroke="#FF8000" stroke-width="2" stroke-linecap="round" stroke-linejoin="round"/>
</svg>
