<svg width="32" height="32" viewBox="0 0 32 32" fill="none" xmlns="http://www.w3.org/2000/svg">
<path d="M26.32 9.31699C26.3167 9.13514 26.2636 8.95767 26.1665 8.80392C26.0693 8.65017 25.9318 8.52601 25.769 8.44499L16.449 3.76199C16.3097 3.69198 16.1559 3.65552 16 3.65552C15.8441 3.65552 15.6903 3.69198 15.551 3.76199L6.231 8.44499C6.06803 8.52584 5.93043 8.64994 5.83325 8.80374C5.73607 8.95753 5.68305 9.13509 5.68 9.31699C5.637 12 6.075 22.817 15.663 26.075C15.877 26.148 16.122 26.148 16.336 26.075C25.925 22.817 26.363 12 26.32 9.31699ZM20.315 13.993L18.817 15.453C18.7475 15.5207 18.6955 15.6044 18.6655 15.6967C18.6355 15.7891 18.6285 15.8873 18.645 15.983L18.999 18.044C19.0178 18.1541 19.0054 18.2673 18.9632 18.3707C18.9211 18.4742 18.8509 18.5637 18.7605 18.6294C18.6701 18.695 18.5632 18.7341 18.4517 18.7421C18.3403 18.7502 18.2289 18.7269 18.13 18.675L16.279 17.702C16.1932 17.6567 16.0976 17.633 16.0005 17.633C15.9034 17.633 15.8078 17.6567 15.722 17.702L13.871 18.675C13.7721 18.7269 13.6607 18.7502 13.5493 18.7421C13.4378 18.7341 13.3309 18.695 13.2405 18.6294C13.1501 18.5637 13.0799 18.4742 13.0378 18.3707C12.9956 18.2673 12.9832 18.1541 13.002 18.044L13.356 15.983C13.3723 15.8873 13.3652 15.7891 13.3353 15.6968C13.3053 15.6045 13.2534 15.5208 13.184 15.453L11.686 13.993C11.6062 13.9149 11.5497 13.8161 11.5231 13.7077C11.4964 13.5993 11.5006 13.4856 11.5351 13.3794C11.5696 13.2733 11.6331 13.1789 11.7185 13.1069C11.8038 13.0349 11.9075 12.9882 12.018 12.972L14.088 12.671C14.1842 12.6571 14.2755 12.6199 14.3541 12.5628C14.4327 12.5056 14.4961 12.4302 14.539 12.343L15.465 10.468C15.5145 10.3678 15.591 10.2835 15.6859 10.2246C15.7808 10.1656 15.8903 10.1344 16.002 10.1344C16.1137 10.1344 16.2232 10.1656 16.3181 10.2246C16.413 10.2835 16.4895 10.3678 16.539 10.468L17.465 12.343C17.508 12.4301 17.5715 12.5054 17.6501 12.5626C17.7286 12.6197 17.8199 12.6569 17.916 12.671L19.986 12.972C20.0962 12.9886 20.1996 13.0357 20.2845 13.1078C20.3695 13.18 20.4326 13.2745 20.4668 13.3806C20.501 13.4867 20.5049 13.6002 20.4781 13.7084C20.4512 13.8166 20.3948 13.9151 20.315 13.993ZM25.955 19.615C24.988 21.613 23.663 23.444 21.917 24.937L25.319 28.339L26.589 24.939L30 23.66L25.955 19.615ZM6.045 19.615L2 23.66L5.41 24.94L6.68 28.34L10.082 24.938C8.337 23.445 7.012 21.614 6.045 19.615Z" fill="#C20254"/>
</svg>
