<svg width="32" height="32" viewBox="0 0 32 32" fill="none" xmlns="http://www.w3.org/2000/svg">
<path d="M28.7453 14.3188L26.9322 12.2124C26.5856 11.8125 26.3057 11.0659 26.3057 10.5327V8.26633C26.3057 6.8532 25.1458 5.69337 23.7327 5.69337H21.4664C20.9464 5.69337 20.1866 5.41342 19.7866 5.0668L17.6803 3.25373C16.7604 2.46718 15.2539 2.46718 14.3207 3.25373L12.2277 5.08013C11.8278 5.41342 11.0679 5.69337 10.548 5.69337H8.24163C6.82851 5.69337 5.66868 6.8532 5.66868 8.26633V10.546C5.66868 11.0659 5.38872 11.8125 5.05543 12.2124L3.2557 14.3321C2.48248 15.252 2.48248 16.7451 3.2557 17.665L5.05543 19.7846C5.38872 20.1846 5.66868 20.9311 5.66868 21.4511V23.7307C5.66868 25.1439 6.82851 26.3037 8.24163 26.3037H10.548C11.0679 26.3037 11.8278 26.5836 12.2277 26.9303L14.3341 28.7433C15.2539 29.5299 16.7604 29.5299 17.6936 28.7433L19.7999 26.9303C20.1999 26.5836 20.9464 26.3037 21.4797 26.3037H23.746C25.1592 26.3037 26.319 25.1439 26.319 23.7307V21.4644C26.319 20.9445 26.5989 20.1846 26.9456 19.7846L28.7586 17.6783C29.5318 16.7584 29.5318 15.2386 28.7453 14.3188ZM21.5464 13.4789L15.1073 19.918C14.9198 20.1052 14.6657 20.2104 14.4007 20.2104C14.1358 20.2104 13.8816 20.1052 13.6942 19.918L10.468 16.6918C10.0814 16.3052 10.0814 15.6652 10.468 15.2786C10.8546 14.892 11.4945 14.892 11.8811 15.2786L14.4007 17.7983L20.1332 12.0658C20.5198 11.6792 21.1597 11.6792 21.5464 12.0658C21.933 12.4524 21.933 13.0923 21.5464 13.4789Z" fill="#C20254"/>
</svg>
