<svg width="36" height="36" viewBox="0 0 36 36" fill="none" xmlns="http://www.w3.org/2000/svg">
<g clip-path="url(#clip0_33_371)">
<path d="M33.9258 3.86719C34.2305 4.39453 34.5059 4.89844 34.752 5.37891C34.998 5.85938 35.2207 6.3457 35.4199 6.83789C35.6191 7.33008 35.7598 7.83984 35.8418 8.36719C35.9238 8.89453 35.9766 9.48047 36 10.125C36 11.0508 35.8828 11.9414 35.6484 12.7969C35.4141 13.6523 35.0742 14.4609 34.6289 15.2227C34.1836 15.9844 33.6504 16.6699 33.0293 17.2793C32.4082 17.8887 31.7227 18.416 30.9727 18.8613C30.2227 19.3066 29.4199 19.6465 28.5645 19.8809C27.709 20.1152 26.8125 20.2383 25.875 20.25C25.6055 20.25 25.3359 20.2383 25.0664 20.2148C24.7969 20.1914 24.5215 20.1563 24.2402 20.1094L10.0723 34.2773C9.50977 34.8398 8.87109 35.2676 8.15625 35.5605C7.44141 35.8535 6.68555 36 5.88867 36C5.08008 36 4.31836 35.8477 3.60352 35.543C2.88867 35.2383 2.26758 34.8164 1.74023 34.2773C1.21289 33.7383 0.791016 33.1113 0.474609 32.3965C0.158203 31.6816 0 30.9199 0 30.1113C0 29.3262 0.146484 28.5762 0.439453 27.8613C0.732422 27.1465 1.16016 26.502 1.72266 25.9277L15.8906 11.7598C15.8437 11.4902 15.8086 11.2207 15.7852 10.9512C15.7617 10.6816 15.75 10.4062 15.75 10.125C15.75 9.19922 15.8672 8.30859 16.1016 7.45312C16.3359 6.59766 16.6758 5.78906 17.1211 5.02734C17.5664 4.26563 18.0996 3.58008 18.7207 2.9707C19.3418 2.36133 20.0273 1.83398 20.7773 1.38867C21.5273 0.943359 22.3301 0.603516 23.1855 0.369141C24.041 0.134766 24.9375 0.0117188 25.875 0C26.5078 0 27.0879 0.046875 27.6152 0.140625C28.1426 0.234375 28.6582 0.380859 29.1621 0.580078C29.666 0.779297 30.1523 0.996094 30.6211 1.23047C31.0898 1.46484 31.5938 1.74609 32.1328 2.07422L25.207 9L27 10.793L33.9258 3.86719ZM25.875 18C26.9648 18 27.9844 17.7949 28.9336 17.3848C29.8828 16.9746 30.7148 16.4121 31.4297 15.6973C32.1445 14.9824 32.707 14.1504 33.1172 13.2012C33.5273 12.252 33.7383 11.2266 33.75 10.125C33.75 9.26953 33.6094 8.44336 33.3281 7.64648L27 13.957L22.043 9L28.3535 2.67188C27.5566 2.39062 26.7305 2.25 25.875 2.25C24.7852 2.25 23.7656 2.45508 22.8164 2.86523C21.8672 3.27539 21.0352 3.83789 20.3203 4.55273C19.6055 5.26758 19.043 6.09961 18.6328 7.04883C18.2227 7.99805 18.0117 9.02344 18 10.125C18 10.5352 18.0352 10.9336 18.1055 11.3203C18.1758 11.707 18.2578 12.0938 18.3516 12.4805L3.32227 27.5273C2.98242 27.8672 2.71875 28.2598 2.53125 28.7051C2.34375 29.1504 2.25 29.6191 2.25 30.1113C2.25 30.6035 2.34375 31.0723 2.53125 31.5176C2.71875 31.9629 2.98242 32.3496 3.32227 32.6777C3.66211 33.0059 4.04883 33.2637 4.48242 33.4512C4.91602 33.6387 5.38477 33.7383 5.88867 33.75C6.38086 33.75 6.84961 33.6563 7.29492 33.4688C7.74023 33.2812 8.13281 33.0176 8.47266 32.6777L23.5195 17.6484C23.9062 17.7422 24.293 17.8242 24.6797 17.8945C25.0664 17.9648 25.4648 18 25.875 18Z" fill="#C20254"/>
</g>
<defs>
<clipPath id="clip0_33_371">
<rect width="36" height="36" fill="white"/>
</clipPath>
</defs>
</svg>
