<svg width="33" height="33" viewBox="0 0 33 33" fill="none" xmlns="http://www.w3.org/2000/svg">
<circle cx="16.5" cy="16.5" r="16.5" fill="#4B8EE4"/>
<path d="M13.5671 23.9997C14.7189 23.9997 15.8004 23.8172 16.8115 23.4523C17.8227 23.0873 18.6865 22.5985 19.403 21.9858C20.1196 21.373 20.7373 20.6682 21.2563 19.8714C21.7753 19.0745 22.162 18.2425 22.4164 17.3753C22.6709 16.5081 22.7981 15.6392 22.7981 14.7687C22.7981 14.5812 22.7948 14.4406 22.7881 14.3468C23.4242 13.8848 23.9667 13.3256 24.4153 12.6694C23.7926 12.9372 23.1698 13.1046 22.547 13.1716C23.2501 12.7497 23.7256 12.1537 23.9734 11.3836C23.3305 11.7653 22.6441 12.0265 21.9142 12.1671C21.2713 11.4841 20.4812 11.1426 19.5437 11.1426C18.6463 11.1426 17.8813 11.459 17.2485 12.0918C16.6157 12.7246 16.2992 13.4897 16.2992 14.387C16.2992 14.6281 16.326 14.8758 16.3796 15.1303C15.0537 15.0633 13.8098 14.7302 12.648 14.1309C11.4862 13.5315 10.5001 12.733 9.68987 11.7352C9.39523 12.2374 9.24791 12.7832 9.24791 13.3725C9.24791 13.9283 9.37849 14.4439 9.63965 14.9194C9.90081 15.3948 10.2524 15.7799 10.6943 16.0745C10.172 16.0544 9.68318 15.9171 9.22782 15.6627V15.6627V15.7028C9.22782 16.4863 9.47391 17.1744 9.9661 17.767C10.4583 18.3597 11.0794 18.733 11.8294 18.887C11.5481 18.9607 11.2635 18.9975 10.9756 18.9975C10.7881 18.9975 10.5838 18.9807 10.3629 18.9473C10.5705 19.5968 10.9521 20.1309 11.508 20.5494C12.0638 20.9679 12.6932 21.1839 13.3963 21.1973C12.2178 22.1214 10.8751 22.5834 9.36844 22.5834C9.0805 22.5834 8.81934 22.57 8.58496 22.5432C10.0917 23.5142 11.7524 23.9997 13.5671 23.9997Z" fill="white"/>
</svg>
