<svg width="102" height="46" viewBox="0 0 102 46" fill="none" xmlns="http://www.w3.org/2000/svg">
<g clip-path="url(#clip0_33_420)">
<path d="M38.7269 0.581719L25.3725 32.44H16.6603L10.0884 7.01409C9.69 5.45182 9.34376 4.87687 8.13131 4.21627C6.14948 3.13969 2.87672 2.13284 0 1.50649L0.194039 0.581719H14.2206C16.0056 0.581719 17.6129 1.77026 18.0217 3.82819L21.4941 22.2651L30.0669 0.581719H38.7269ZM50.5047 0.581719L43.6903 32.44H35.4474L42.2627 0.581719H50.5047ZM72.8635 22.0384C72.8977 13.6317 61.2394 13.1652 61.3155 9.4091C61.3434 8.26718 62.4312 7.05155 64.8122 6.74077C65.9916 6.58816 69.25 6.46664 72.9408 8.16717L74.3847 1.40728C72.4017 0.690094 69.8497 0 66.6753 0C58.5273 0 52.7958 4.32783 52.7499 10.5299C52.6965 15.1175 56.8439 17.6743 59.9628 19.2023C63.1755 20.7626 64.2528 21.7654 64.2381 23.16C64.215 25.2976 61.6722 26.2439 59.3082 26.2789C55.1629 26.3447 52.7599 25.1585 50.843 24.2656L49.3469 31.2495C51.2753 32.1332 54.8294 32.901 58.5105 32.94C67.1726 32.94 72.838 28.6616 72.8635 22.0384ZM94.3791 32.4404H102L95.3421 0.581719H88.3109C86.7251 0.581719 85.3923 1.50211 84.801 2.91696L72.4335 32.44H81.0888L82.8057 27.681H93.3802L94.3791 32.4404ZM85.1792 21.153L89.5189 9.18916L92.012 21.153H85.1792ZM61.0538 41.2096H57.7045V44.3266H61.4506V45.2637H56.5761V36.6164H61.2586V37.5535H57.7045V40.2856H61.0534L61.0538 41.2096ZM63.181 36.155H64.3094V45.2633H63.181V36.155ZM67.1566 42.3639C67.1821 43.8911 68.1448 44.5194 69.2859 44.5194C70.0947 44.5194 70.5948 44.3784 71.0059 44.1991L71.2107 45.0075C70.8131 45.1868 70.1206 45.4047 69.1321 45.4047C67.2212 45.4047 66.0797 44.1349 66.0797 42.2615C66.0797 40.3888 67.1821 38.9257 68.9914 38.9257C71.0314 38.9257 71.5574 40.6968 71.5574 41.8383C71.5574 42.069 71.5442 42.2356 71.5183 42.3643L67.1566 42.3639ZM70.4665 41.5558C70.4796 40.8506 70.1716 39.7342 68.9014 39.7342C67.7467 39.7342 67.259 40.7733 67.169 41.5558H70.4665ZM77.6997 45.0454C77.4049 45.1868 76.7502 45.4051 75.9167 45.4051C74.0436 45.4051 72.8248 44.1349 72.8248 42.236C72.8248 40.3243 74.1329 38.9261 76.1601 38.9261C76.8271 38.9261 77.4172 39.0923 77.7252 39.2596L77.4694 40.1191C77.1989 39.978 76.7757 39.8234 76.1601 39.8234C74.7357 39.8234 73.9667 40.8885 73.9667 42.1722C73.9667 43.6086 74.8903 44.4939 76.1219 44.4939C76.7634 44.4939 77.1865 44.3401 77.5072 44.1991L77.6997 45.0454ZM80.8665 37.5659V39.054H82.4825V39.9131H80.8665V43.2619C80.8665 44.0325 81.0848 44.468 81.7132 44.468C82.0207 44.468 82.2008 44.4429 82.3678 44.3907L82.4192 45.2513C82.2008 45.3278 81.8546 45.4047 81.4183 45.4047C80.892 45.4047 80.4684 45.225 80.1995 44.9306C79.8915 44.5836 79.7632 44.0325 79.7632 43.301V39.9131H78.8006V39.054H79.7632V37.8994L80.8665 37.5659ZM84.0592 40.9916C84.0592 40.2601 84.0456 39.6318 84.0078 39.054H84.9959L85.0477 40.2852H85.0851C85.368 39.4521 86.0601 38.9257 86.8167 38.9257C86.9327 38.9257 87.0227 38.9389 87.1255 38.9513V40.0167C87.01 39.9904 86.8948 39.9904 86.7398 39.9904C85.9454 39.9904 85.38 40.5805 85.2266 41.4279C85.2 41.602 85.1871 41.7778 85.1879 41.9539V45.2641H84.0592V40.9916ZM94.0643 42.1073C94.0643 44.4039 92.4602 45.4047 90.9724 45.4047C89.3042 45.4047 87.9961 44.1728 87.9961 42.2105C87.9961 40.1446 89.3687 38.9261 91.0752 38.9261C92.8582 38.9261 94.0643 40.2207 94.0643 42.1073ZM89.1504 42.1722C89.1504 43.5321 89.9202 44.5589 91.0234 44.5589C92.1016 44.5589 92.9093 43.5444 92.9093 42.1463C92.9093 41.0944 92.3833 39.7724 91.0489 39.7724C89.7281 39.7724 89.1504 41.0048 89.1504 42.1722ZM95.7943 40.7351C95.7943 40.0812 95.7808 39.5676 95.7425 39.0548H96.7434L96.8076 40.0812H96.8331C97.1411 39.5035 97.8594 38.9265 98.8858 38.9265C99.7448 38.9265 101.08 39.4397 101.08 41.5686V45.2641H99.9508V41.6845C99.9508 40.6845 99.5787 39.8497 98.5141 39.8497C97.7825 39.8497 97.2048 40.3761 97.0004 41.0044C96.9486 41.1458 96.9231 41.3379 96.9231 41.5307V45.2641H95.7943V40.7351Z" fill="#1A1F71"/>
</g>
<defs>
<clipPath id="clip0_33_420">
<rect width="102" height="45.4219" fill="white"/>
</clipPath>
</defs>
</svg>
